<svg width="16" height="17" viewBox="0 0 16 17" fill="none" xmlns="http://www.w3.org/2000/svg">
<path fill-rule="evenodd" clip-rule="evenodd" d="M2.125 0C0.951395 0 0 0.951395 0 2.125V12.75C0 13.9236 0.951395 14.875 2.125 14.875H8.5C8.95416 14.875 9.22506 14.3688 8.97313 13.9909L8.64816 13.5035C8.55155 13.3586 8.5 13.1883 8.5 13.0142V12.2188C8.5 11.9253 8.73785 11.6875 9.03125 11.6875H9.29688C9.44358 11.6875 9.5625 11.5686 9.5625 11.4219C9.5625 11.2752 9.44358 11.1562 9.29688 11.1562H1.94792C1.54686 11.1562 1.29044 10.7289 1.47917 10.375L4.90937 3.94337C5.09488 3.59553 5.58129 3.5638 5.81042 3.88458L7.60424 6.39594C7.79505 6.66307 8.18006 6.69494 8.41219 6.46281L9.60646 5.26854C9.85276 5.02224 10.2655 5.07564 10.441 5.37651L11.6875 7.4375H14.3438C14.875 7.4375 14.875 7.96875 14.875 7.96875V2.125C14.875 0.951395 13.9236 0 12.75 0H2.125ZM12.75 3.1875C12.75 3.7743 12.2743 4.25 11.6875 4.25C11.1007 4.25 10.625 3.7743 10.625 3.1875C10.625 2.6007 11.1007 2.125 11.6875 2.125C12.2743 2.125 12.75 2.6007 12.75 3.1875Z" fill="#222542"/>
<path d="M13.5578 8.5H11.9422C11.7191 8.5 11.5383 8.69595 11.5383 8.93767V12.0014C11.5383 12.2431 11.3574 12.4391 11.1344 12.4391H9.96717C9.62643 12.4391 9.43879 12.8681 9.65457 13.1539L12.4374 16.8395C12.599 17.0535 12.901 17.0535 13.0626 16.8395L15.8454 13.1539C16.0612 12.8681 15.8736 12.4391 15.5328 12.4391H14.3656C14.1426 12.4391 13.9617 12.2431 13.9617 12.0014V8.93767C13.9617 8.69595 13.7809 8.5 13.5578 8.5Z" fill="#222542"/>
</svg>
