<svg width="8" height="8" viewBox="0 0 8 8" fill="none" xmlns="http://www.w3.org/2000/svg">
<path id="Union" d="M6.85232 7.80309C7.11487 8.06564 7.54054 8.06564 7.80309 7.80309C8.06564 7.54054 8.06564 7.11486 7.80309 6.85232L4.95077 4L7.80309 1.14768C8.06564 0.885135 8.06564 0.45946 7.80309 0.196911C7.54054 -0.065637 7.11487 -0.0656373 6.85232 0.196911L4 3.04923L1.14768 0.196912C0.885135 -0.0656366 0.45946 -0.0656368 0.196911 0.196912C-0.0656371 0.45946 -0.0656371 0.885135 0.196911 1.14768L3.04923 4L0.196912 6.85232C-0.0656369 7.11486 -0.0656369 7.54054 0.196912 7.80309C0.45946 8.06564 0.885135 8.06564 1.14768 7.80309L4 4.95077L6.85232 7.80309Z" fill="#666666"/>
</svg>
