<?xml version="1.0" encoding="utf-8"?>
<!-- Generator: Adobe Illustrator 25.1.0, SVG Export Plug-In . SVG Version: 6.00 Build 0)  -->
<svg version="1.1" id="Layer_1" xmlns="http://www.w3.org/2000/svg" xmlns:xlink="http://www.w3.org/1999/xlink" x="0px" y="0px"
	 viewBox="0 0 480 480" style="enable-background:new 0 0 480 480;" xml:space="preserve">
<style type="text/css">
	.st0{fill:#CCCCCC;}
	.st1{fill:#3271FF;}
</style>
<path class="st1" d="M386.51437,63.19141c-38.44043,0-71.82031,17.69238-99.21387,52.58643
	c-16.68085,21.24756-29.87238,46.56647-42.72609,73.71881l-113.04749,79.40521l57.40466,29.11707
	c-3.99524,5.84668-8.15112,11.38184-12.50317,16.51624c-23.14355,27.30371-48.04395,39.47949-80.7373,39.47949
	c-17.94922,0-32.5,14.55078-32.5,32.5s14.55078,32.5,32.5,32.5c27.41797,0,52.86719-5.97168,75.64062-17.75
	c20.11719-10.4043,38.00391-25.02637,54.68066-44.70117c7.71484-9.10156,14.73999-18.82227,21.27954-28.94281l59.09657,29.97522
	l-2.76477-140.77264c26.65863-55.66187,48.15698-88.63184,82.89062-88.63184c17.94922,0,32.5-14.55078,32.5-32.5
	S404.46359,63.19141,386.51437,63.19141z"/>
</svg>
